<svg xmlns:xlink="http://www.w3.org/1999/xlink" xmlns="http://www.w3.org/2000/svg" viewBox="0 0 312.5 312.5" preserveAspectRatio="xMidYMid meet" class="css-grg60t" id="fdhehbeh" width="312.5"  height="312.5" ><defs id="SvgjsDefs3122"></defs><g id="SvgjsG3123" featurekey="rootContainer" transform="matrix(3,0,0,3,0,0)" fill="#111111"><path xmlns="http://www.w3.org/2000/svg" d="M 0 0 v 104.1 h 104.1 V 0 z m 101.7 101.7 H 2.4 V 2.4 h 99.3 z" fill="#111111"></path></g><g id="SvgjsG3124" featurekey="G09qjj-0" transform="matrix(0.8,0,0,0.8,116,64.8)" fill="#543a3a"><g xmlns="http://www.w3.org/2000/svg" fill="#543a3a"><g fill="#543a3a"><path d="M 73 30 c -13.3 0 -24 10.7 -24 24 s 10.7 24 24 24 s 24 -10.7 24 -24 S 86.3 30 73 30 z M 73 76 c -12.1 0 -22 -9.9 -22 -22 s 9.9 -22 22 -22 s 22 9.9 22 22 S 85.1 76 73 76 z M 97 27 h -1 v -1.3 C 96 24.7 95.2 24 94.2 24 H 33 v -3 h -3 v -2 h -5 v 2 h -3 v 3 h -2 v -3 H 6 v 6 H 3 c -1.6 0 -3 1.4 -3 3 v 48 c 0 1.6 1.4 3 3 3 h 94 c 1.6 0 3 -1.4 3 -3 V 30 C 100 28.4 98.7 27 97 27 z M 30 23 h 1 v 1 h -1 V 23 z M 27 21 h 1 v 3 h -1 V 21 z M 24 23 h 1 v 1 h -1 V 23 z M 20 26 h 2 h 3 h 2 h 1 h 2 h 3 h 61 v 1 H 20 V 26 z M 8 23 h 10 v 2 H 8 V 23 z M 98 78 c 0 0.5 -0.5 1 -1 1 H 3 c -0.5 0 -1 -0.5 -1 -1 V 30 c 0 -0.5 0.5 -1 1 -1 h 16.8 h 74.3 H 97 c 0.5 0 1 0.5 1 1 V 78 z M 73 35.5 c -10.2 0 -18.5 8.3 -18.5 18.5 S 62.8 72.5 73 72.5 S 91.5 64.2 91.5 54 S 83.2 35.5 73 35.5 z M 73 70.5 c -9.1 0 -16.5 -7.4 -16.5 -16.5 S 63.9 37.5 73 37.5 S 89.5 44.9 89.5 54 S 82.1 70.5 73 70.5 z M 23 78 h 2 V 30 h -2 V 78 z M 46.2 30 H 32 c -1 0 -1.8 0.7 -1.8 1.7 v 1.7 C 30.2 34.3 31 35 32 35 h 14.2 c 1 0 1.8 -0.7 1.8 -1.7 v -1.7 C 48 30.7 47.2 30 46.2 30 z M 46 33 H 32.2 v -1 H 46 V 33 z M 73 45.5 c -4.7 0 -8.5 3.8 -8.5 8.5 s 3.8 8.5 8.5 8.5 s 8.5 -3.8 8.5 -8.5 S 77.7 45.5 73 45.5 z M 73 60.5 c -3.6 0 -6.5 -2.9 -6.5 -6.5 s 2.9 -6.5 6.5 -6.5 s 6.5 2.9 6.5 6.5 S 76.6 60.5 73 60.5 z" fill="#543a3a"></path></g></g></g><g id="SvgjsG3125" featurekey="0yvIkK-0" transform="matrix(2.8,0,0,2.8,54.5,135.5)" fill="#111111"><path d="M 13.5 13.4 c 0.6 2.1 -1.1 4.5 -2.7 5.5 c -3.1 2 -7.2 1.7 -10.3 0.1 l 0.9 -4.1 l 1.5 0 c 0.2 2.1 4.9 3 5.4 0.9 c 0.2 -1 -3.4 -1.3 -4.7 -2.3 c -0.1 -0.1 -0.1 -0.1 -0.2 -0.2 l -0.9 0 c -1 -0.9 -1.1 -2.1 -0.8 -3.4 c 1.2 -5.2 8.3 -5.7 12.3 -3.7 l -0.9 4 l -1.5 0 c 0.1 -1.5 -4.4 -2.5 -4.8 -0.7 c -0.3 1.4 4.3 1 5.5 3.2 c 0.1 0.2 0.2 0.4 0.3 0.7 l 0.9 0 z M 21.1 13.8 l -1.1 0 c 0 -0.1 0 -0.2 0 -0.3 c 0.1 -1.1 -0.3 -1.2 -1.2 -0.7 l -0.2 1 l 1 0 l -1.4 6.2 l -4.6 0 l 1.4 -6.2 l -1.1 0 l 2 -8.6 l 4.6 0 l -0.9 4.1 c 1.5 -0.7 3.9 -0.9 5 0.6 c 0.5 0.7 0.6 1.8 0.2 3.2 l -0.2 0.7 l 1.1 0 l -1.4 6.2 l -4.7 0 l 1.2 -5.3 c 0 -0.2 0.1 -0.5 0.2 -0.9 z M 26.8 13.8 l -1 0 l 0.8 -3.8 l 4.7 0 l -0.8 3.8 l 1 0 l -1.4 6.2 l -4.7 0 z M 32.5 5.2 l -0.8 3.5 l -4.8 0 l 0.8 -3.5 l 4.8 0 z M 37.3 13.6 l -1.4 6.4 l -4.6 0 l 1.5 -6.4 l -0.9 0 l 1.1 -4.6 l 4.6 0 l -0.1 0.5 c 1.3 -0.7 2.2 -0.7 3.5 -0.4 l -0.9 3.9 l -1.2 0 c -0.2 -0.9 -1.9 -0.6 -2.2 0.1 l -0.1 0.5 l 0.9 0 z M 41.9 13.8 l -1.1 0 l 2 -8.6 l 4.6 0 l -2 8.6 l 1.1 0 l -1.4 6.2 l -4.6 0 z M 47.9 14.6 c 0.1 -0.3 0.2 -0.6 0.3 -0.9 l -1.1 0 c 2.3 -6.4 12.4 -7 11.1 0 l 1.1 0 c 0 0.1 0 0.2 0 0.4 l -0.4 1.6 l -6.5 0 c -0.3 2.4 4.2 1.7 4.7 0.8 l 1.5 0 l -0.7 2.8 c -3.9 2.2 -11.4 1.7 -9.9 -4.6 z M 54.8 12.7 c 0.2 -1.1 -2.1 -1.7 -3.2 0 c 0 0 3.2 0 3.2 0 z M 69.8 13.6 l -5.9 10 l -4.8 0 l 2.7 -4.4 c -0.2 -1.8 -0.5 -3.7 -0.7 -5.6 l -0.9 0 c -0.2 -1.5 -0.4 -3.1 -0.6 -4.6 l 4.8 0 l 0.4 4.2 l 0 0 c 0 0 0 0 0 0 c 0.7 -1.4 1.5 -2.7 2.2 -4.1 l 4.7 0 l -2.7 4.6 l 0.9 0 z" fill="#111111"></path></g><g id="SvgjsG3126" featurekey="sloganFeature-0" transform="matrix(0.7,0,0,0.7,76,217.8)" fill="#543a3a"><path d="M 0 4.6 l 2.1 0 l 0 12.7 l -0.7 0 l 0 -12 l -0.6 0 l 0 12.6 l 6.6 0 l 0 -1.9 l -3.3 0 l 0 -0.7 l 4 0 l 0 3.4 l -8 0 l 0 -14 z M 2.7 4.6 l 0.7 0 l 0 12 l 3.2 0 l 0 0.7 l -3.9 0 l 0 -12.7 z M 19.6 18.6 c -1.2 0 -2.4 -0.3 -3.5 -1 c -2.2 -1.3 -3.6 -3.6 -3.6 -6.1 c 0 -1.2 0.3 -2.4 1 -3.5 c 1.3 -2.2 3.6 -3.5 6.1 -3.5 c 1.2 0 2.4 0.3 3.5 0.9 c 2.2 1.3 3.5 3.7 3.5 6.1 c 0 1.2 -0.3 2.4 -0.9 3.5 c -1.3 2.2 -3.6 3.6 -6.1 3.6 z M 19.6 5.3 c -1.1 0 -2.2 0.3 -3.2 0.8 c -1.9 1.1 -3.1 3.2 -3.1 5.5 c 0 1.1 0.3 2.2 0.8 3.2 c 1.1 1.9 3.2 3.1 5.5 3.1 c 1.1 0 2.2 -0.3 3.2 -0.8 c 1.9 -1.1 3.1 -3.2 3.1 -5.5 c 0 -1.1 -0.3 -2.2 -0.8 -3.2 c -1.1 -1.9 -3.2 -3.1 -5.5 -3.1 z M 19.6 17.2 c -1 0 -1.9 -0.3 -2.8 -0.8 c -1.8 -1 -2.9 -2.9 -2.9 -4.9 c 0 -1 0.3 -2 0.8 -2.8 c 1 -1.8 2.8 -2.8 5 -2.8 c 1.1 0 2.1 0.2 2.9 0.7 c 1.7 1 2.7 2.8 2.7 4.9 c 0 1 -0.2 2 -0.7 2.8 c -1 1.7 -2.9 2.8 -4.9 2.8 z M 19.6 6.6 c -0.9 0 -1.7 0.2 -2.5 0.7 c -1.5 0.9 -2.5 2.5 -2.5 4.3 c 0 0.9 0.2 1.7 0.7 2.5 c 0.9 1.5 2.4 2.5 4.3 2.5 c 0.9 0 1.7 -0.2 2.5 -0.7 c 1.5 -0.9 2.5 -2.5 2.5 -4.3 c 0 -0.9 -0.2 -1.7 -0.7 -2.5 c -0.9 -1.5 -2.5 -2.4 -4.3 -2.4 z M 19.6 15.9 c -0.8 0 -1.5 -0.2 -2.2 -0.6 c -1.3 -0.8 -2.2 -2.3 -2.2 -3.8 c 0 -0.8 0.2 -1.5 0.6 -2.2 c 0.8 -1.4 2.2 -2.1 3.8 -2.1 c 0.8 0 1.5 0.2 2.2 0.6 c 1.3 0.8 2.1 2.1 2.1 3.8 c 0 0.8 -0.2 1.5 -0.5 2.2 c -0.7 1.3 -2.2 2.2 -3.7 2.2 z M 19.6 8 c -0.6 0 -1.2 0.2 -1.8 0.5 c -1.1 0.7 -1.8 1.8 -1.8 3.1 c 0 0.6 0.2 1.2 0.5 1.8 c 0.6 1.1 1.8 1.8 3.2 1.8 c 0.7 0 1.3 -0.2 1.8 -0.5 c 1.1 -0.6 1.8 -1.8 1.8 -3.1 c 0 -0.7 -0.2 -1.3 -0.5 -1.8 c -0.6 -1.1 -1.8 -1.8 -3.1 -1.8 z M 37 18.6 c -1.2 0 -2.4 -0.3 -3.5 -1 c -2.2 -1.3 -3.6 -3.6 -3.6 -6.1 c 0 -1.2 0.3 -2.4 1 -3.5 c 1.3 -2.2 3.6 -3.5 6.1 -3.5 c 1.2 0 2.4 0.3 3.5 0.9 c 2.2 1.3 3.5 3.7 3.5 6.1 c 0 1.2 -0.3 2.4 -0.9 3.5 c -1.3 2.2 -3.6 3.6 -6.1 3.6 z M 37 5.3 c -1.1 0 -2.2 0.3 -3.2 0.8 c -1.9 1.1 -3.1 3.2 -3.1 5.5 c 0 1.1 0.3 2.2 0.8 3.2 c 1.1 1.9 3.2 3.1 5.5 3.1 c 1.1 0 2.2 -0.3 3.2 -0.8 c 1.9 -1.1 3.1 -3.2 3.1 -5.5 c 0 -1.1 -0.3 -2.2 -0.8 -3.2 c -1.1 -1.9 -3.2 -3.1 -5.5 -3.1 z M 37 17.2 c -1 0 -1.9 -0.3 -2.8 -0.8 c -1.8 -1 -2.9 -2.9 -2.9 -4.9 c 0 -1 0.3 -2 0.8 -2.8 c 1 -1.8 2.8 -2.8 5 -2.8 c 1.1 0 2.1 0.2 2.9 0.7 c 1.7 1 2.7 2.8 2.7 4.9 c 0 1 -0.2 2 -0.7 2.8 c -1 1.7 -2.9 2.8 -4.9 2.8 z M 37 6.6 c -0.9 0 -1.7 0.2 -2.5 0.7 c -1.5 0.9 -2.5 2.5 -2.5 4.3 c 0 0.9 0.2 1.7 0.7 2.5 c 0.9 1.5 2.4 2.5 4.3 2.5 c 0.9 0 1.7 -0.2 2.5 -0.7 c 1.5 -0.9 2.5 -2.5 2.5 -4.3 c 0 -0.9 -0.2 -1.7 -0.7 -2.5 c -0.9 -1.5 -2.5 -2.4 -4.3 -2.4 z M 37 15.9 c -0.8 0 -1.5 -0.2 -2.2 -0.6 c -1.3 -0.8 -2.2 -2.3 -2.2 -3.8 c 0 -0.8 0.2 -1.5 0.6 -2.2 c 0.8 -1.4 2.2 -2.1 3.8 -2.1 c 0.8 0 1.5 0.2 2.2 0.6 c 1.3 0.8 2.1 2.1 2.1 3.8 c 0 0.8 -0.2 1.5 -0.5 2.2 c -0.7 1.3 -2.2 2.2 -3.7 2.2 z M 37 8 c -0.6 0 -1.2 0.2 -1.8 0.5 c -1.1 0.7 -1.8 1.8 -1.8 3.1 c 0 0.6 0.2 1.2 0.5 1.8 c 0.6 1.1 1.8 1.8 3.2 1.8 c 0.7 0 1.3 -0.2 1.8 -0.5 c 1.1 -0.6 1.8 -1.8 1.8 -3.1 c 0 -0.7 -0.2 -1.3 -0.5 -1.8 c -0.6 -1.1 -1.8 -1.8 -3.1 -1.8 z M 48.6 17.9 l 0 -13.3 l -0.7 0 l 0 14 l 3.5 0 l 0 -5.7 l 5.5 -6.9 l -0.9 0 l -5.3 6.7 l 0 5.3 l -2 0 z M 50.6 9.2 l 0.7 -0.9 l 0 -3.7 l -2.1 0 l 0 6.4 l 0.7 -0.9 l 0 -4.8 l 0.7 0 l 0 3.9 z M 59.6 4.6 l -4.4 0 l -5.9 7.6 l 0 5.2 l 0.7 0 l 0 -4.9 l 5.6 -7.1 l 2.6 0 l -5.6 7.2 l 3.6 4.9 l 0.9 0 l -3.6 -4.9 z M 58.2 17.9 l -2.5 0 l -3.6 -4.8 l 0 1.2 l 3.2 4.3 l 4.3 0 l -4.9 -6.6 l -0.5 0.6 z M 65.5 4.6 l 2.1 0 l 0 12.7 l -0.7 0 l 0 -11.9 l -0.7 0 l 0 12.6 l 2 0 l 0 -13.3 l 0.7 0 l 0 14 l -3.5 0 l 0 -14 z M 84.1 12.9 l -8.2 -8.3 l -1 0 l 9.9 10.1 l 0 -8.7 l -0.7 0 l 0 6.9 z M 83.4 11.3 l 0 -6 l 2 0 l 0 12.6 l -0.3 0 l -0.1 -0.1 l -9.2 -9.3 l 0 10.1 l 2.1 0 l 0 -5.9 l -0.7 -0.8 l 0 5.9 l -0.6 0 l 0 -7.6 l 8.3 8.3 l 1.3 0 l 0 -14 l -3.5 0 l 0 5.9 z M 75.2 18.6 l 0 -11.7 l 9.6 9.7 l 0 -1.1 l -10.3 -10.4 l 0 13.4 l 0.7 0 z M 97.6 18.6 c -1.2 0 -2.4 -0.3 -3.5 -1 c -2.2 -1.3 -3.5 -3.6 -3.5 -6 c 0 -1.2 0.3 -2.4 1 -3.5 c 1.3 -2.2 3.5 -3.5 6 -3.5 c 1.7 0 3.4 0.7 4.7 1.8 c 0 0 0.1 0.1 0.2 0.1 l 0.1 0.2 l -0.5 0.5 l -0.3 -0.3 c -1.1 -1.1 -2.6 -1.6 -4.2 -1.6 c -1.1 0 -2.2 0.3 -3.1 0.8 c -1.9 1.1 -3.1 3.2 -3.1 5.4 c 0 1.1 0.3 2.2 0.8 3.1 c 1.1 1.9 3.2 3.1 5.4 3.1 c 1.4 0 2.4 -0.4 4.1 -1.5 l 0 -4.6 l -4.4 0 l 0 -0.7 l 5.1 0 l 0 5.7 l -0.1 0.1 c -1.8 1.2 -3.1 1.7 -4.7 1.7 z M 97.6 17.2 c -1 0 -1.9 -0.3 -2.8 -0.8 c -1.8 -1 -2.8 -2.9 -2.8 -4.9 c 0 -1 0.3 -2 0.8 -2.9 c 1 -1.7 2.8 -2.8 4.9 -2.8 c 1.1 0 2.2 0.4 3.3 1.1 l 0.5 0.4 l 0.3 0.3 l -1.4 1.6 l -0.6 -0.5 c -0.6 -0.4 -1.3 -0.6 -2 -0.6 c -0.6 0 -1.2 0.2 -1.7 0.5 c -1.1 0.6 -1.8 1.8 -1.8 3 c 0 0.6 0.2 1.2 0.5 1.7 c 0.6 1.1 1.7 1.8 3 1.8 c 0.5 0 1 -0.1 1.4 -0.3 l 0 -0.3 l -1.7 0 l 0 -2 l 3.7 0 l 0 3.6 l -0.5 0.4 c -0.9 0.6 -1.8 0.9 -3 0.9 z M 97.6 6.7 c -0.9 0 -1.7 0.2 -2.5 0.7 c -1.5 0.9 -2.5 2.5 -2.5 4.3 c 0 0.9 0.2 1.7 0.7 2.4 c 0.9 1.5 2.5 2.5 4.3 2.5 c 1 0 1.9 -0.3 2.6 -0.8 l 0.1 -0.1 l 0 -2.5 l -2.3 0 l 0 0.6 l 1.7 0 l 0 1.5 l -0.2 0.1 c -0.7 0.3 -1.3 0.5 -1.9 0.5 c -0.7 0 -1.4 -0.2 -2.1 -0.6 c -1.3 -0.8 -2.1 -2.1 -2.1 -3.6 c 0 -0.8 0.2 -1.5 0.6 -2.1 c 0.7 -1.3 2.1 -2.1 3.6 -2.1 c 0.9 0 1.7 0.3 2.4 0.8 l 0.1 0.1 l 0.5 -0.5 l -0.2 -0.1 c -0.9 -0.6 -1.8 -0.9 -2.9 -0.9 z M 118.4 4.6 l 0.7 0 l 0 13.3 l 2 0 l 0 -5 l 4.7 0 l 0 -0.7 l -4.7 0 l 0 -0.7 l 5.4 0 l 0 2.1 l -4.7 0 l 0 5 l -3.4 0 l 0 -14 z M 119.7 4.6 l 7.7 0 l 0 3.4 l -5 0 l 0 -0.7 l 4.3 0 l 0 -2 l -6.3 0 l 0 12 l -0.7 0 l 0 -12.7 z M 121.1 5.9 l 5 0 l 0 0.7 l -4.3 0 l 0 3.5 l 4.7 0 l 0 0.7 l -5.4 0 l 0 -5 z M 138.8 18.6 c -1.2 0 -2.4 -0.3 -3.5 -1 c -2.2 -1.3 -3.6 -3.6 -3.6 -6.1 c 0 -1.2 0.3 -2.4 1 -3.5 c 1.3 -2.2 3.6 -3.5 6.1 -3.5 c 1.2 0 2.4 0.3 3.5 0.9 c 2.2 1.3 3.5 3.7 3.5 6.1 c 0 1.2 -0.3 2.4 -0.9 3.5 c -1.3 2.2 -3.6 3.6 -6.1 3.6 z M 138.8 5.3 c -1.1 0 -2.2 0.3 -3.2 0.8 c -1.9 1.1 -3.1 3.2 -3.1 5.5 c 0 1.1 0.3 2.2 0.8 3.2 c 1.1 1.9 3.2 3.1 5.5 3.1 c 1.1 0 2.2 -0.3 3.2 -0.8 c 1.9 -1.1 3.1 -3.2 3.1 -5.5 c 0 -1.1 -0.3 -2.2 -0.8 -3.2 c -1.1 -1.9 -3.2 -3.1 -5.5 -3.1 z M 138.8 17.2 c -1 0 -1.9 -0.3 -2.8 -0.8 c -1.8 -1 -2.9 -2.9 -2.9 -4.9 c 0 -1 0.3 -2 0.8 -2.8 c 1 -1.8 2.8 -2.8 5 -2.8 c 1.1 0 2.1 0.2 2.9 0.7 c 1.7 1 2.7 2.8 2.7 4.9 c 0 1 -0.2 2 -0.7 2.8 c -1 1.7 -2.9 2.8 -4.9 2.8 z M 138.8 6.6 c -0.9 0 -1.7 0.2 -2.5 0.7 c -1.5 0.9 -2.5 2.5 -2.5 4.3 c 0 0.9 0.2 1.7 0.7 2.5 c 0.9 1.5 2.4 2.5 4.3 2.5 c 0.9 0 1.7 -0.2 2.5 -0.7 c 1.5 -0.9 2.5 -2.5 2.5 -4.3 c 0 -0.9 -0.2 -1.7 -0.7 -2.5 c -0.9 -1.5 -2.5 -2.4 -4.3 -2.4 z M 138.8 15.9 c -0.8 0 -1.5 -0.2 -2.2 -0.6 c -1.3 -0.8 -2.2 -2.3 -2.2 -3.8 c 0 -0.8 0.2 -1.5 0.6 -2.2 c 0.8 -1.4 2.2 -2.1 3.8 -2.1 c 0.8 0 1.5 0.2 2.2 0.6 c 1.3 0.8 2.1 2.1 2.1 3.8 c 0 0.8 -0.2 1.5 -0.5 2.2 c -0.7 1.3 -2.2 2.2 -3.7 2.2 z M 138.8 8 c -0.6 0 -1.2 0.2 -1.8 0.5 c -1.1 0.7 -1.8 1.8 -1.8 3.1 c 0 0.6 0.2 1.2 0.5 1.8 c 0.6 1.1 1.8 1.8 3.2 1.8 c 0.7 0 1.3 -0.2 1.8 -0.5 c 1.1 -0.6 1.8 -1.8 1.8 -3.1 c 0 -0.7 -0.2 -1.3 -0.5 -1.8 c -0.6 -1.1 -1.8 -1.8 -3.1 -1.8 z M 159.9 17.9 l -2.3 0 l -2.8 -5.1 l -1.9 0 l 0 5.1 l -2 0 l 0 -13.3 l -0.7 0 l 0 14 l 3.5 0 l 0 -5.1 l 0.7 0 l 2.7 5.1 l 3.9 0 l -2.8 -5.2 l -0.7 0.3 z M 155.1 5.3 c 2.9 0 4.5 1.3 4.5 3.7 c 0 2.2 -1.3 3.5 -3.6 3.7 l -0.5 0.1 l 2.5 4.6 l 0.8 0 l -2.2 -4.1 c 2.4 -0.4 3.7 -1.9 3.7 -4.3 c 0 -0.8 -0.2 -1.6 -0.5 -2.2 c -0.8 -1.4 -2.4 -2.2 -4.7 -2.2 l -3.5 0 l 0 12.8 l 0.7 0 l 0 -12.1 l 2.8 0 z M 155 12.1 c 2.7 0 4 -0.9 4 -3 c 0 -2 -1.4 -3.1 -3.5 -3.1 l -2.5 0 l 0 2.1 l 2.3 0 c 1.1 0 1.6 0.3 1.6 0.9 c 0 0.7 -0.7 1 -2 1 l -1.2 0 l 0 -1.2 l -0.7 0 l 0 2 l 1.9 0 c 1.8 0 2.7 -0.6 2.7 -1.8 c 0 -0.4 -0.1 -0.6 -0.3 -0.9 c -0.3 -0.5 -1 -0.7 -2.1 -0.7 l -1.6 0 l 0 -0.7 l 1.8 0 c 1.8 0 2.8 0.9 2.8 2.4 c 0 1.6 -1.1 2.3 -3.3 2.3 l -2 0 l 0 0.7 l 2 0 z M 183 17.3 l 0.7 0 l 0 -5.8 l 4.3 -6.2 l 0.8 0 l -4.3 6.2 l 0 6.3 l -2.1 0 l 0 -6.3 l -4.9 -6.9 l -0.9 0 l 5 7.2 l 0 6.8 l 3.5 0 l 0 -6.8 l 5 -7.2 l -2.5 0 l -4.6 6.7 l 0 6.1 z M 185.9 4.6 l -3.3 4.9 l -3 -4.2 l 0.8 0 l 2.2 3.2 l 0.4 -0.6 l -2.3 -3.2 l -2.5 0 l 4 5.7 l 0.3 0.5 l 4.2 -6.2 l -0.9 0 z M 201.4 18.6 c -1.2 0 -2.4 -0.3 -3.5 -1 c -2.2 -1.3 -3.6 -3.6 -3.6 -6.1 c 0 -1.2 0.3 -2.4 1 -3.5 c 1.3 -2.2 3.6 -3.5 6.1 -3.5 c 1.2 0 2.4 0.3 3.5 0.9 c 2.2 1.3 3.5 3.7 3.5 6.1 c 0 1.2 -0.3 2.4 -0.9 3.5 c -1.3 2.2 -3.6 3.6 -6.1 3.6 z M 201.4 5.3 c -1.1 0 -2.2 0.3 -3.2 0.8 c -1.9 1.1 -3.1 3.2 -3.1 5.5 c 0 1.1 0.3 2.2 0.8 3.2 c 1.1 1.9 3.2 3.1 5.5 3.1 c 1.1 0 2.2 -0.3 3.2 -0.8 c 1.9 -1.1 3.1 -3.2 3.1 -5.5 c 0 -1.1 -0.3 -2.2 -0.8 -3.2 c -1.1 -1.9 -3.2 -3.1 -5.5 -3.1 z M 201.4 17.2 c -1 0 -1.9 -0.3 -2.8 -0.8 c -1.8 -1 -2.9 -2.9 -2.9 -4.9 c 0 -1 0.3 -2 0.8 -2.8 c 1 -1.8 2.8 -2.8 5 -2.8 c 1.1 0 2.1 0.2 2.9 0.7 c 1.7 1 2.7 2.8 2.7 4.9 c 0 1 -0.2 2 -0.7 2.8 c -1 1.7 -2.9 2.8 -4.9 2.8 z M 201.4 6.6 c -0.9 0 -1.7 0.2 -2.5 0.7 c -1.5 0.9 -2.5 2.5 -2.5 4.3 c 0 0.9 0.2 1.7 0.7 2.5 c 0.9 1.5 2.4 2.5 4.3 2.5 c 0.9 0 1.7 -0.2 2.5 -0.7 c 1.5 -0.9 2.5 -2.5 2.5 -4.3 c 0 -0.9 -0.2 -1.7 -0.7 -2.5 c -0.9 -1.5 -2.5 -2.4 -4.3 -2.4 z M 201.4 15.9 c -0.8 0 -1.5 -0.2 -2.2 -0.6 c -1.3 -0.8 -2.2 -2.3 -2.2 -3.8 c 0 -0.8 0.2 -1.5 0.6 -2.2 c 0.8 -1.4 2.2 -2.1 3.8 -2.1 c 0.8 0 1.5 0.2 2.2 0.6 c 1.3 0.8 2.1 2.1 2.1 3.8 c 0 0.8 -0.2 1.5 -0.5 2.2 c -0.7 1.3 -2.2 2.2 -3.7 2.2 z M 201.4 8 c -0.6 0 -1.2 0.2 -1.8 0.5 c -1.1 0.7 -1.8 1.8 -1.8 3.1 c 0 0.6 0.2 1.2 0.5 1.8 c 0.6 1.1 1.8 1.8 3.2 1.8 c 0.7 0 1.3 -0.2 1.8 -0.5 c 1.1 -0.6 1.8 -1.8 1.8 -3.1 c 0 -0.7 -0.2 -1.3 -0.5 -1.8 c -0.6 -1.1 -1.8 -1.8 -3.1 -1.8 z M 219 18.6 c -1.9 0 -3.4 -0.5 -4.4 -1.5 c -1 -1 -1.5 -2.4 -1.5 -4.1 l 0 -8.4 l 3.4 0 l 0 8.4 c 0 1.5 0.7 2.2 2.4 2.2 c 1.6 0 2.4 -0.8 2.4 -2.2 l 0 -8.4 l 2.1 0 l 0 8.4 c 0 1.1 -0.3 2.1 -0.8 2.8 c -0.7 1 -1.9 1.4 -3.6 1.4 c -1 0 -1.8 -0.1 -2.5 -0.4 c -1.3 -0.6 -2 -1.9 -2 -3.8 l 0 -7.1 l 0.7 0 l 0 7.1 c 0 2.3 1.3 3.5 3.8 3.5 s 3.7 -1.2 3.7 -3.5 l 0 -7.7 l -0.6 0 l 0 7.7 c 0 1.8 -1.2 2.9 -3.2 2.9 c -2 0 -3.1 -1 -3.1 -2.9 l 0 -7.7 l -2 0 l 0 7.7 c 0 3.2 1.8 4.8 5.1 4.8 c 1.8 0 3 -0.4 3.8 -1.3 s 1.3 -2.1 1.3 -3.6 l 0 -8.4 l 0.7 0 l 0 8.4 c 0 1.7 -0.5 3.1 -1.5 4.1 c -1 1 -2.4 1.5 -4.3 1.5 z" fill="#543a3a"></path></g>
    <path d="M 47 9 S 145 132 145 132" fill="rgb(255, 255, 255)"/></svg>