<svg xmlns:xlink="http://www.w3.org/1999/xlink" xmlns="http://www.w3.org/2000/svg" viewBox="0 0 312.5 312.5" preserveAspectRatio="xMidYMid meet" class="css-grg60t" id="fdhehbeh" width="312.5"  height="312.5" ><defs id="SvgjsDefs3122"></defs>
<rect width="100%" height="100%" fill="#2A2438"/>
<g id="SvgjsG3124" featurekey="G09qjj-0" transform="matrix(0.7999999999999999,0,0,0.7999999999999999,116,64.8)" fill="#FFFFFF"><g xmlns="http://www.w3.org/2000/svg" fill="#FFFFFF"><g fill="#FFFFFF"><path d="M73,30c-13.255,0-24,10.745-24,24s10.745,24,24,24s24-10.745,24-24S86.255,30,73,30z M73,76c-12.131,0-22-9.869-22-22    s9.869-22,22-22s22,9.869,22,22S85.131,76,73,76z M97,27h-1v-1.332C96,24.746,95.176,24,94.16,24H33v-3h-3v-2h-5v2h-3v3h-2v-3H6v6    H3c-1.65,0-3,1.35-3,3v48c0,1.65,1.35,3,3,3h94c1.65,0,3-1.35,3-3V30C100,28.35,98.65,27,97,27z M30,23h1v1h-1V23z M27,21h1v3h-1    V21z M24,23h1v1h-1V23z M20,26h2h3h2h1h2h3h61v1H20V26z M8,23h10v2H8V23z M98,78c0,0.543-0.458,1-1,1H3c-0.542,0-1-0.457-1-1V30    c0-0.541,0.458-1,1-1h16.84h74.32H97c0.542,0,1,0.459,1,1V78z M73,35.5c-10.218,0-18.5,8.282-18.5,18.5S62.782,72.5,73,72.5    S91.5,64.218,91.5,54S83.218,35.5,73,35.5z M73,70.5c-9.098,0-16.5-7.402-16.5-16.5S63.902,37.5,73,37.5S89.5,44.902,89.5,54    S82.098,70.5,73,70.5z M23,78h2V30h-2V78z M46.16,30H32c-1.016,0-1.84,0.746-1.84,1.668v1.666C30.16,34.254,30.984,35,32,35h14.16    c1.016,0,1.84-0.746,1.84-1.666v-1.666C48,30.746,47.176,30,46.16,30z M46,33H32.16v-1H46V33z M73,45.5    c-4.694,0-8.5,3.805-8.5,8.5s3.806,8.5,8.5,8.5s8.5-3.805,8.5-8.5S77.694,45.5,73,45.5z M73,60.5c-3.584,0-6.5-2.916-6.5-6.5    s2.916-6.5,6.5-6.5s6.5,2.916,6.5,6.5S76.584,60.5,73,60.5z" fill="#FFFFFF"></path></g></g></g><g id="SvgjsG3125" featurekey="0yvIkK-0" transform="matrix(2.8143314642266284,0,0,2.8143314642266284,54.51712793128215,135.46854484514114)" fill="#FFFFFF"><path d="M13.545 13.3594 c0.56641 2.0508 -1.1328 4.4727 -2.7051 5.5371 c-3.0859 2.0215 -7.1582 1.6992 -10.313 0.078125 l0.91797 -4.0625 l1.5137 0 c0.19531 2.0996 4.8926 2.9688 5.3711 0.89844 c0.23438 -1.0254 -3.4473 -1.3086 -4.6777 -2.2754 c-0.068359 -0.058594 -0.14648 -0.11719 -0.20508 -0.17578 l-0.89844 0 c-0.97656 -0.91797 -1.0645 -2.1387 -0.78125 -3.4082 c1.1914 -5.2051 8.2617 -5.7227 12.344 -3.6621 l-0.9082 3.9551 l-1.5234 0 c0.097656 -1.4844 -4.3945 -2.5 -4.8145 -0.71289 c-0.2832 1.3867 4.2676 0.97656 5.5273 3.1738 c0.10742 0.19531 0.19531 0.42969 0.25391 0.6543 l0.89844 0 z M21.074215625 13.789100000000001 l-1.0547 0 c0.029297 -0.10742 0.048828 -0.22461 0.048828 -0.3418 c0.13672 -1.1035 -0.3125 -1.1719 -1.2109 -0.67383 l-0.23438 1.0156 l1.0449 0 l-1.4355 6.2109 l-4.6387 0 l1.4453 -6.2109 l-1.0547 0 l1.9629 -8.5547 l4.6387 0 l-0.94727 4.1113 c1.4648 -0.67383 3.9453 -0.9375 4.9609 0.56641 c0.49805 0.74219 0.57617 1.8066 0.24414 3.2227 l-0.15625 0.6543 l1.0645 0 l-1.4258 6.2109 l-4.668 0 l1.2207 -5.3125 c0.048828 -0.17578 0.13672 -0.53711 0.19531 -0.89844 z M26.77739375 13.789100000000001 l-1.0254 0 l0.84961 -3.7793 l4.6582 0 l-0.84961 3.7793 l1.0352 0 l-1.377 6.2109 l-4.6582 0 z M32.46089375 5.234 l-0.81055 3.5352 l-4.8242 0 l0.81055 -3.5352 l4.8242 0 z M37.343715625 13.6328 l-1.4453 6.3574 l-4.5801 0 l1.4551 -6.3574 l-0.88867 0 l1.0645 -4.6094 l4.5801 0 l-0.13672 0.52734 c1.2891 -0.6543 2.1973 -0.6543 3.5352 -0.41016 l-0.89844 3.877 l-1.2109 0 c-0.20508 -0.92773 -1.9238 -0.57617 -2.2461 0.14648 l-0.11719 0.46875 l0.88867 0 z M41.923815625 13.789100000000001 l-1.0645 0 l1.9824 -8.5547 l4.6191 0 l-1.9629 8.5547 l1.0547 0 l-1.4453 6.2109 l-4.6387 0 z M47.910121875 14.5703 c0.078125 -0.33203 0.18555 -0.625 0.2832 -0.9375 l-1.084 0 c2.3438 -6.377 12.383 -7.0117 11.084 0 l1.0938 0 c-0.019531 0.11719 -0.019531 0.23438 -0.048828 0.36133 l-0.41992 1.6309 l-6.4648 0 c-0.33203 2.4121 4.248 1.6797 4.6973 0.81055 l1.4941 0 l-0.71289 2.7832 c-3.8574 2.2168 -11.357 1.6602 -9.9219 -4.6484 z M54.834021875 12.685500000000001 c0.21484 -1.0645 -2.1289 -1.6699 -3.2324 0 c0.0097656 0 3.2324 0.0097656 3.2324 0 z M69.79490625 13.6328 l-5.8887 9.9805 l-4.8438 0 l2.6758 -4.4141 c-0.16602 -1.8164 -0.45898 -3.6816 -0.74219 -5.5664 l-0.88867 0 c-0.22461 -1.543 -0.44922 -3.0957 -0.625 -4.6094 l4.7754 0 l0.39063 4.1699 l0.019531 -0.029297 c0 -0.019531 0.019531 -0.019531 0.019531 -0.048828 c0.74219 -1.3574 1.4551 -2.7148 2.207 -4.0918 l4.6973 0 l-2.7148 4.6094 l0.91797 0 z" fill="#FFFFFF"></path></g><g id="SvgjsG3126" featurekey="sloganFeature-0" transform="matrix(0.7119338694301324,0,0,0.7119338694301324,76,217.7568730926087)" fill="#FFFFFF"><path d="M0 5.98 l2.06 0 l0 12.7 l-0.74 0 l0 -11.98 l-0.6 0 l0 12.58 l6.58 0 l0 -1.92 l-3.26 0 l0 -0.72 l3.98 0 l0 3.36 l-8.02 0 l0 -14.02 z M2.72 5.98 l0.72 0 l0 11.96 l3.22 0 l0 0.74 l-3.94 0 l0 -12.7 z M19.6 20 c-1.22 0 -2.38 -0.32 -3.48 -0.96 c-2.2 -1.26 -3.56 -3.58 -3.56 -6.06 c0 -1.24 0.32 -2.4 0.96 -3.5 c1.26 -2.16 3.62 -3.52 6.08 -3.52 c1.22 0 2.4 0.32 3.5 0.94 c2.2 1.28 3.52 3.66 3.52 6.08 c0 1.22 -0.32 2.36 -0.94 3.46 c-1.28 2.2 -3.6 3.56 -6.08 3.56 z M19.6 6.66 c-1.14 0 -2.2 0.28 -3.16 0.84 c-1.94 1.12 -3.14 3.18 -3.14 5.48 c0 1.14 0.28 2.2 0.84 3.16 c1.12 1.94 3.16 3.14 5.46 3.14 c1.14 0 2.2 -0.28 3.18 -0.84 c1.94 -1.12 3.14 -3.16 3.14 -5.46 c0 -1.14 -0.28 -2.2 -0.84 -3.18 c-1.12 -1.94 -3.24 -3.14 -5.48 -3.14 z M19.6 18.64 c-1 0 -1.94 -0.26 -2.84 -0.76 c-1.78 -1.02 -2.88 -2.88 -2.88 -4.9 c0 -1.02 0.26 -1.96 0.76 -2.84 c1.02 -1.76 2.82 -2.8 4.96 -2.8 c1.08 0 2.06 0.24 2.92 0.72 c1.72 0.96 2.72 2.76 2.72 4.92 c0 1.02 -0.24 1.96 -0.72 2.82 c-0.98 1.74 -2.9 2.84 -4.92 2.84 z M19.6 8.04 c-0.9 0 -1.72 0.22 -2.48 0.66 c-1.54 0.88 -2.48 2.46 -2.48 4.28 c0 0.88 0.22 1.7 0.68 2.46 c0.88 1.54 2.44 2.5 4.28 2.5 c0.9 0 1.72 -0.22 2.48 -0.68 c1.5 -0.88 2.46 -2.52 2.46 -4.28 c0 -0.9 -0.22 -1.74 -0.66 -2.5 c-0.88 -1.52 -2.54 -2.44 -4.28 -2.44 z M19.6 17.34 c-0.78 0 -1.52 -0.2 -2.18 -0.58 c-1.34 -0.78 -2.2 -2.26 -2.2 -3.78 c0 -0.78 0.2 -1.52 0.6 -2.2 c0.78 -1.36 2.16 -2.14 3.78 -2.14 c0.78 0 1.5 0.2 2.16 0.58 c1.34 0.78 2.12 2.14 2.12 3.76 c0 0.8 -0.18 1.52 -0.54 2.18 c-0.74 1.32 -2.16 2.18 -3.74 2.18 z M19.6 9.36 c-0.64 0 -1.24 0.16 -1.8 0.48 c-1.12 0.66 -1.84 1.84 -1.84 3.14 c0 0.64 0.16 1.24 0.48 1.78 c0.64 1.12 1.8 1.8 3.16 1.8 c0.66 0 1.28 -0.16 1.82 -0.48 c1.1 -0.64 1.76 -1.82 1.76 -3.1 c0 -0.66 -0.16 -1.26 -0.48 -1.82 c-0.64 -1.12 -1.82 -1.8 -3.1 -1.8 z M37 20 c-1.22 0 -2.38 -0.32 -3.48 -0.96 c-2.2 -1.26 -3.56 -3.58 -3.56 -6.06 c0 -1.24 0.32 -2.4 0.96 -3.5 c1.26 -2.16 3.62 -3.52 6.08 -3.52 c1.22 0 2.4 0.32 3.5 0.94 c2.2 1.28 3.52 3.66 3.52 6.08 c0 1.22 -0.32 2.36 -0.94 3.46 c-1.28 2.2 -3.6 3.56 -6.08 3.56 z M37 6.66 c-1.14 0 -2.2 0.28 -3.16 0.84 c-1.94 1.12 -3.14 3.18 -3.14 5.48 c0 1.14 0.28 2.2 0.84 3.16 c1.12 1.94 3.16 3.14 5.46 3.14 c1.14 0 2.2 -0.28 3.18 -0.84 c1.94 -1.12 3.14 -3.16 3.14 -5.46 c0 -1.14 -0.28 -2.2 -0.84 -3.18 c-1.12 -1.94 -3.24 -3.14 -5.48 -3.14 z M37 18.64 c-1 0 -1.94 -0.26 -2.84 -0.76 c-1.78 -1.02 -2.88 -2.88 -2.88 -4.9 c0 -1.02 0.26 -1.96 0.76 -2.84 c1.02 -1.76 2.82 -2.8 4.96 -2.8 c1.08 0 2.06 0.24 2.92 0.72 c1.72 0.96 2.72 2.76 2.72 4.92 c0 1.02 -0.24 1.96 -0.72 2.82 c-0.98 1.74 -2.9 2.84 -4.92 2.84 z M37 8.04 c-0.9 0 -1.72 0.22 -2.48 0.66 c-1.54 0.88 -2.48 2.46 -2.48 4.28 c0 0.88 0.22 1.7 0.68 2.46 c0.88 1.54 2.44 2.5 4.28 2.5 c0.9 0 1.72 -0.22 2.48 -0.68 c1.5 -0.88 2.46 -2.52 2.46 -4.28 c0 -0.9 -0.22 -1.74 -0.66 -2.5 c-0.88 -1.52 -2.54 -2.44 -4.28 -2.44 z M37 17.34 c-0.78 0 -1.52 -0.2 -2.18 -0.58 c-1.34 -0.78 -2.2 -2.26 -2.2 -3.78 c0 -0.78 0.2 -1.52 0.6 -2.2 c0.78 -1.36 2.16 -2.14 3.78 -2.14 c0.78 0 1.5 0.2 2.16 0.58 c1.34 0.78 2.12 2.14 2.12 3.76 c0 0.8 -0.18 1.52 -0.54 2.18 c-0.74 1.32 -2.16 2.18 -3.74 2.18 z M37 9.36 c-0.64 0 -1.24 0.16 -1.8 0.48 c-1.12 0.66 -1.84 1.84 -1.84 3.14 c0 0.64 0.16 1.24 0.48 1.78 c0.64 1.12 1.8 1.8 3.16 1.8 c0.66 0 1.28 -0.16 1.82 -0.48 c1.1 -0.64 1.76 -1.82 1.76 -3.1 c0 -0.66 -0.16 -1.26 -0.48 -1.82 c-0.64 -1.12 -1.82 -1.8 -3.1 -1.8 z M48.58 19.3 l0 -13.3 l-0.72 0 l0 14.02 l3.5 -0.02 l0 -5.72 l5.48 -6.94 l-0.92 0 l-5.3 6.68 l0 5.28 l-2.04 0 z M50.6 10.64 l0.74 -0.92 l0 -3.72 l-2.12 0 l0 6.42 l0.72 -0.92 l0 -4.76 l0.66 0 l0 3.9 z M59.58 6 l-4.42 0 l-5.94 7.62 l0 5.16 l0.72 0 l0 -4.92 l5.56 -7.12 l2.6 0 l-5.64 7.18 l3.6 4.86 l0.9 0 l-3.58 -4.86 z M58.16 19.3 l-2.54 0 l-3.58 -4.84 l0 1.2 l3.22 4.34 l4.34 0 l-4.9 -6.58 l-0.46 0.58 z M65.5 6 l2.1 0 l0 12.66 l-0.72 0 l0 -11.94 l-0.66 0 l0 12.56 l2.02 0 l0 -13.28 l0.72 0 l0 14 l-3.46 0 l0 -14 z M84.06 14.3 l-8.18 -8.3 l-1 0 l9.9 10.06 l0 -8.66 l-0.72 0 l0 6.9 z M83.4 12.7 l0 -6 l2.04 0 l0 12.58 l-0.34 0 l-0.08 -0.08 l-9.16 -9.28 l0 10.08 l2.1 0 l0 -5.9 l-0.74 -0.76 l0 5.94 l-0.64 0 l0 -7.6 l8.3 8.32 l1.28 0 l0 -14 l-3.48 0 l0 5.92 z M75.2 20 l0 -11.7 l9.58 9.72 l0 -1.06 l-10.28 -10.38 l0 13.42 l0.7 0 z M97.58 20 c-1.24 0 -2.4 -0.32 -3.46 -0.96 c-2.16 -1.26 -3.52 -3.64 -3.52 -6.02 c0 -1.24 0.32 -2.42 0.96 -3.52 c1.28 -2.22 3.48 -3.48 6.02 -3.48 c1.74 0 3.42 0.66 4.7 1.84 c0.04 0.02 0.1 0.06 0.16 0.12 l0.14 0.16 l-0.5 0.52 l-0.28 -0.28 c-1.14 -1.06 -2.64 -1.64 -4.22 -1.64 c-1.12 0 -2.16 0.28 -3.12 0.84 c-1.94 1.12 -3.14 3.2 -3.14 5.44 c0 1.12 0.28 2.16 0.84 3.12 c1.12 1.94 3.18 3.14 5.42 3.14 c1.36 0 2.4 -0.38 4.1 -1.48 l0 -4.6 l-4.38 0 l0 -0.72 l5.08 0 l0 5.7 l-0.14 0.12 c-1.78 1.22 -3.06 1.7 -4.66 1.7 z M97.58 18.64 c-1 0 -1.94 -0.26 -2.8 -0.76 c-1.76 -1.02 -2.84 -2.86 -2.84 -4.86 c0 -1.02 0.26 -1.98 0.76 -2.86 c1.02 -1.74 2.82 -2.78 4.88 -2.78 c1.14 0 2.24 0.36 3.3 1.06 l0.52 0.4 l0.26 0.26 l-1.44 1.56 l-0.64 -0.5 c-0.58 -0.42 -1.26 -0.64 -2 -0.64 c-0.6 0 -1.18 0.16 -1.72 0.46 c-1.1 0.64 -1.76 1.76 -1.76 3.04 c0 0.6 0.16 1.18 0.48 1.72 c0.62 1.1 1.74 1.76 3 1.76 c0.5 0 0.96 -0.1 1.38 -0.32 l0 -0.32 l-1.66 0 l0 -2.04 l3.74 0 l0 3.56 l-0.46 0.36 c-0.9 0.62 -1.82 0.9 -3 0.9 z M97.58 8.1 c-0.88 0 -1.7 0.22 -2.46 0.66 c-1.52 0.88 -2.46 2.5 -2.46 4.26 c0 0.88 0.22 1.7 0.66 2.44 c0.88 1.52 2.5 2.46 4.26 2.46 c0.98 0 1.86 -0.26 2.6 -0.76 l0.14 -0.12 l0 -2.5 l-2.3 0 l0 0.6 l1.66 0 l0 1.5 l-0.2 0.1 c-0.66 0.32 -1.28 0.48 -1.9 0.48 c-0.72 0 -1.42 -0.2 -2.08 -0.58 c-1.34 -0.78 -2.12 -2.08 -2.12 -3.62 c0 -0.76 0.18 -1.46 0.56 -2.12 c0.74 -1.28 2.1 -2.08 3.64 -2.08 c0.86 0 1.68 0.26 2.42 0.76 l0.14 0.1 l0.48 -0.52 l-0.16 -0.12 c-0.86 -0.62 -1.82 -0.94 -2.88 -0.94 z M118.38 6 l0.72 0 l0 13.28 l1.96 0 l0 -5 l4.68 0 l0 -0.66 l-4.66 0 l0 -0.72 l5.38 0 l0 2.1 l-4.68 0 l0 5 l-3.4 0 l0 -14 z M119.72 6 l7.72 0 l0 3.4 l-5 0 l0 -0.72 l4.28 0 l0 -1.96 l-6.3 0 l0 12 l-0.7 0 l0 -12.72 z M121.06 7.300000000000001 l5.04 0 l0 0.72 l-4.32 0 l0 3.54 l4.68 0 l0 0.74 l-5.4 0 l0 -5 z M138.82 20 c-1.22 0 -2.38 -0.32 -3.48 -0.96 c-2.2 -1.26 -3.56 -3.58 -3.56 -6.06 c0 -1.24 0.32 -2.4 0.96 -3.5 c1.26 -2.16 3.62 -3.52 6.08 -3.52 c1.22 0 2.4 0.32 3.5 0.94 c2.2 1.28 3.52 3.66 3.52 6.08 c0 1.22 -0.32 2.36 -0.94 3.46 c-1.28 2.2 -3.6 3.56 -6.08 3.56 z M138.82 6.66 c-1.14 0 -2.2 0.28 -3.16 0.84 c-1.94 1.12 -3.14 3.18 -3.14 5.48 c0 1.14 0.28 2.2 0.84 3.16 c1.12 1.94 3.16 3.14 5.46 3.14 c1.14 0 2.2 -0.28 3.18 -0.84 c1.94 -1.12 3.14 -3.16 3.14 -5.46 c0 -1.14 -0.28 -2.2 -0.84 -3.18 c-1.12 -1.94 -3.24 -3.14 -5.48 -3.14 z M138.82 18.64 c-1 0 -1.94 -0.26 -2.84 -0.76 c-1.78 -1.02 -2.88 -2.88 -2.88 -4.9 c0 -1.02 0.26 -1.96 0.76 -2.84 c1.02 -1.76 2.82 -2.8 4.96 -2.8 c1.08 0 2.06 0.24 2.92 0.72 c1.72 0.96 2.72 2.76 2.72 4.92 c0 1.02 -0.24 1.96 -0.72 2.82 c-0.98 1.74 -2.9 2.84 -4.92 2.84 z M138.82 8.04 c-0.9 0 -1.72 0.22 -2.48 0.66 c-1.54 0.88 -2.48 2.46 -2.48 4.28 c0 0.88 0.22 1.7 0.68 2.46 c0.88 1.54 2.44 2.5 4.28 2.5 c0.9 0 1.72 -0.22 2.48 -0.68 c1.5 -0.88 2.46 -2.52 2.46 -4.28 c0 -0.9 -0.22 -1.74 -0.66 -2.5 c-0.88 -1.52 -2.54 -2.44 -4.28 -2.44 z M138.82 17.34 c-0.78 0 -1.52 -0.2 -2.18 -0.58 c-1.34 -0.78 -2.2 -2.26 -2.2 -3.78 c0 -0.78 0.2 -1.52 0.6 -2.2 c0.78 -1.36 2.16 -2.14 3.78 -2.14 c0.78 0 1.5 0.2 2.16 0.58 c1.34 0.78 2.12 2.14 2.12 3.76 c0 0.8 -0.18 1.52 -0.54 2.18 c-0.74 1.32 -2.16 2.18 -3.74 2.18 z M138.82 9.36 c-0.64 0 -1.24 0.16 -1.8 0.48 c-1.12 0.66 -1.84 1.84 -1.84 3.14 c0 0.64 0.16 1.24 0.48 1.78 c0.64 1.12 1.8 1.8 3.16 1.8 c0.66 0 1.28 -0.16 1.82 -0.48 c1.1 -0.64 1.76 -1.82 1.76 -3.1 c0 -0.66 -0.16 -1.26 -0.48 -1.82 c-0.64 -1.12 -1.82 -1.8 -3.1 -1.8 z M159.9 19.28 l-2.3 0 l-2.76 -5.14 l-1.86 0.02 l0 5.12 l-2.02 0 l0 -13.28 l-0.72 0 l0 14 l3.48 0 l0 -5.14 l0.7 0 l2.74 5.14 l3.94 0 l-2.76 -5.16 l-0.66 0.26 z M155.14 6.720000000000001 c2.9 0 4.54 1.3 4.54 3.68 c0 2.16 -1.3 3.48 -3.56 3.72 l-0.54 0.06 l2.5 4.62 l0.82 0 l-2.18 -4.06 c2.4 -0.42 3.68 -1.88 3.68 -4.34 c0 -0.82 -0.18 -1.56 -0.52 -2.22 c-0.8 -1.42 -2.44 -2.18 -4.74 -2.18 l-3.54 0 l0 12.78 l0.72 0 l0 -12.06 l2.82 0 z M154.98 13.52 c2.74 0 4.04 -0.94 4.04 -3.02 c0 -1.98 -1.36 -3.1 -3.54 -3.1 l-2.52 0 l0 2.1 l2.3 0 c1.06 0 1.6 0.3 1.6 0.9 c0 0.7 -0.66 1.04 -2 1.04 l-1.16 0 l0 -1.24 l-0.74 0 l0 1.96 l1.9 0 c1.78 0 2.72 -0.62 2.72 -1.76 c0 -0.36 -0.08 -0.64 -0.26 -0.86 c-0.34 -0.5 -1.02 -0.74 -2.06 -0.74 l-1.56 0 l0 -0.68 l1.78 0 c1.78 0 2.82 0.86 2.82 2.38 c0 1.58 -1.06 2.32 -3.32 2.32 l-2 0 l0 0.7 l2 0 z M182.96 18.72 l0.72 0 l-0.02 -5.82 l4.26 -6.18 l0.78 0 l-4.34 6.22 l0 6.34 l-2.06 0 l0.02 -6.34 l-4.86 -6.94 l-0.88 0 l4.98 7.16 l0 6.84 l3.52 0 l0 -6.84 l5 -7.16 l-2.52 0 l-4.6 6.66 l0 6.06 z M185.9 6 l-3.34 4.9 l-2.96 -4.18 l0.78 0 l2.24 3.16 l0.44 -0.64 l-2.3 -3.24 l-2.52 0 l3.98 5.66 l0.34 0.52 l4.22 -6.18 l-0.88 0 z M201.36 20 c-1.22 0 -2.38 -0.32 -3.48 -0.96 c-2.2 -1.26 -3.56 -3.58 -3.56 -6.06 c0 -1.24 0.32 -2.4 0.96 -3.5 c1.26 -2.16 3.62 -3.52 6.08 -3.52 c1.22 0 2.4 0.32 3.5 0.94 c2.2 1.28 3.52 3.66 3.52 6.08 c0 1.22 -0.32 2.36 -0.94 3.46 c-1.28 2.2 -3.6 3.56 -6.08 3.56 z M201.36 6.66 c-1.14 0 -2.2 0.28 -3.16 0.84 c-1.94 1.12 -3.14 3.18 -3.14 5.48 c0 1.14 0.28 2.2 0.84 3.16 c1.12 1.94 3.16 3.14 5.46 3.14 c1.14 0 2.2 -0.28 3.18 -0.84 c1.94 -1.12 3.14 -3.16 3.14 -5.46 c0 -1.14 -0.28 -2.2 -0.84 -3.18 c-1.12 -1.94 -3.24 -3.14 -5.48 -3.14 z M201.36 18.64 c-1 0 -1.94 -0.26 -2.84 -0.76 c-1.78 -1.02 -2.88 -2.88 -2.88 -4.9 c0 -1.02 0.26 -1.96 0.76 -2.84 c1.02 -1.76 2.82 -2.8 4.96 -2.8 c1.08 0 2.06 0.24 2.92 0.72 c1.72 0.96 2.72 2.76 2.72 4.92 c0 1.02 -0.24 1.96 -0.72 2.82 c-0.98 1.74 -2.9 2.84 -4.92 2.84 z M201.36 8.04 c-0.9 0 -1.72 0.22 -2.48 0.66 c-1.54 0.88 -2.48 2.46 -2.48 4.28 c0 0.88 0.22 1.7 0.68 2.46 c0.88 1.54 2.44 2.5 4.28 2.5 c0.9 0 1.72 -0.22 2.48 -0.68 c1.5 -0.88 2.46 -2.52 2.46 -4.28 c0 -0.9 -0.22 -1.74 -0.66 -2.5 c-0.88 -1.52 -2.54 -2.44 -4.28 -2.44 z M201.36 17.34 c-0.78 0 -1.52 -0.2 -2.18 -0.58 c-1.34 -0.78 -2.2 -2.26 -2.2 -3.78 c0 -0.78 0.2 -1.52 0.6 -2.2 c0.78 -1.36 2.16 -2.14 3.78 -2.14 c0.78 0 1.5 0.2 2.16 0.58 c1.34 0.78 2.12 2.14 2.12 3.76 c0 0.8 -0.18 1.52 -0.54 2.18 c-0.74 1.32 -2.16 2.18 -3.74 2.18 z M201.36 9.36 c-0.64 0 -1.24 0.16 -1.8 0.48 c-1.12 0.66 -1.84 1.84 -1.84 3.14 c0 0.64 0.16 1.24 0.48 1.78 c0.64 1.12 1.8 1.8 3.16 1.8 c0.66 0 1.28 -0.16 1.82 -0.48 c1.1 -0.64 1.76 -1.82 1.76 -3.1 c0 -0.66 -0.16 -1.26 -0.48 -1.82 c-0.64 -1.12 -1.82 -1.8 -3.1 -1.8 z M218.98000000000002 20 c-1.94 0 -3.42 -0.5 -4.4 -1.5 c-0.96 -0.96 -1.46 -2.38 -1.46 -4.06 l0 -8.42 l3.4 0 l0 8.42 c0 1.52 0.74 2.16 2.36 2.16 c1.58 0 2.44 -0.78 2.44 -2.16 l0 -8.42 l2.06 0 l0 8.42 c0 1.06 -0.28 2.06 -0.82 2.78 c-0.72 0.98 -1.86 1.44 -3.62 1.44 c-1.02 0 -1.84 -0.14 -2.46 -0.44 c-1.26 -0.58 -2.02 -1.88 -2.02 -3.78 l0 -7.14 l0.72 0 l0 7.14 c0 2.26 1.3 3.5 3.76 3.5 s3.72 -1.24 3.72 -3.5 l0 -7.7 l-0.62 0 l0 7.7 c0 1.76 -1.18 2.88 -3.16 2.88 c-2 0 -3.06 -1.02 -3.06 -2.88 l0 -7.7 l-1.98 0 l0 7.7 c0 3.18 1.76 4.84 5.14 4.84 c1.76 0 2.96 -0.42 3.78 -1.28 s1.26 -2.1 1.26 -3.56 l0 -8.42 l0.72 0 l0 8.42 c0 1.68 -0.52 3.08 -1.48 4.06 c-0.96 1 -2.38 1.5 -4.28 1.5 z" fill="#FFFFFF"></path></g></svg>